<svg width="32" height="32" viewBox="0 0 32 32" fill="none" xmlns="http://www.w3.org/2000/svg">
<mask id="mask0_10599_5239" style="mask-type:alpha" maskUnits="userSpaceOnUse" x="0" y="0" width="22" height="22">
<circle cx="10.5536" cy="10.5536" r="10.5536" fill="#D9D9D9"/>
</mask>
<g mask="url(#mask0_10599_5239)">
<path d="M26.1942 -1H-3.18826C-4.18681 -1 -5 -0.185204 -5 0.815316V20.1847C-5 21.1852 -4.18681 22 -3.18826 22H26.1882C27.1868 22 28 21.1792 28 20.1847V0.815316C28.0059 -0.185204 27.1868 -1 26.1942 -1Z" fill="#00008B"/>
<path fill-rule="evenodd" clip-rule="evenodd" d="M2.26189 12.8823L2.81727 14.62L4.52741 13.9711L3.51562 15.4998L5.08829 16.4291L3.26817 16.5885L3.52112 18.4031L2.26189 17.0724L0.997159 18.4031L1.2501 16.5885L-0.570007 16.4291L1.00266 15.4998L-0.00912717 13.9711L1.70101 14.62L2.26189 12.8823Z" fill="white"/>
<path fill-rule="evenodd" clip-rule="evenodd" d="M17.5558 16.0166L17.8198 16.8415L18.6336 16.5335L18.1552 17.2594L18.903 17.7048L18.0342 17.7818L18.1552 18.6451L17.5558 18.0127L16.9565 18.6451L17.0719 17.7818L16.2086 17.7048L16.9565 17.2594L16.4726 16.5335L17.2864 16.8415L17.5558 16.0166Z" fill="white"/>
<path fill-rule="evenodd" clip-rule="evenodd" d="M17.5558 3.1109L17.8198 3.93573L18.6336 3.62779L18.1552 4.35364L18.903 4.79904L18.0342 4.87602L18.1552 5.73934L17.5558 5.10698L16.9565 5.73934L17.0719 4.87602L16.2086 4.79904L16.9565 4.35364L16.4726 3.62779L17.2864 3.93573L17.5558 3.1109Z" fill="white"/>
<path fill-rule="evenodd" clip-rule="evenodd" d="M13.7561 8.03999L14.0256 8.87032L14.8394 8.56238L14.3555 9.28823L15.1034 9.73363L14.24 9.80512L14.3555 10.6684L13.7561 10.0361L13.1568 10.6684L13.2778 9.80512L12.4089 9.73363L13.1568 9.28823L12.6784 8.56238L13.4922 8.87032L13.7561 8.03999Z" fill="white"/>
<path fill-rule="evenodd" clip-rule="evenodd" d="M20.8559 7.05905L21.1254 7.88937L21.9392 7.58144L21.4553 8.30729L22.2032 8.75269L21.3398 8.82967L21.4553 9.68749L20.8559 9.06062L20.2566 9.68749L20.3775 8.82967L19.5087 8.75269L20.2566 8.30729L19.7782 7.58144L20.592 7.88937L20.8559 7.05905Z" fill="white"/>
<path fill-rule="evenodd" clip-rule="evenodd" d="M18.3898 10.75L18.5988 11.2669L19.1542 11.3054L18.7308 11.6628L18.8627 12.2072L18.3898 11.9158L17.9169 12.2072L18.0489 11.6628L17.62 11.3054L18.1809 11.2669L18.3898 10.75Z" fill="white"/>
<path d="M-6.05062 1.02828L9.13714 8.62216H11.0672V7.65987L-4.247 0H-4.51095C-5.1983 0 -5.79767 0.42341 -6.05062 1.02828ZM11.0672 0V0.962295L-4.247 8.62216H-6.17709V7.65987L9.13714 0H11.0672Z" fill="white"/>
<path d="M1.00987 0V8.62216H3.88576V0H1.00987ZM-6.17709 2.87589V5.75177H11.0672V2.87589H-6.17709Z" fill="white"/>
<path d="M-6.17709 3.44777V5.1744H11.0672V3.44777H-6.17709ZM1.58175 0V8.62216H3.30839V0H1.58175Z" fill="#FF0000"/>
<path d="M-6.17709 8.62216L-0.430818 5.74628H0.855908L-4.89037 8.62216H-6.17709ZM-5.91315 0.775335C-5.80317 0.604871 -5.6657 0.456403 -5.50624 0.335429L-0.425319 2.87589H-1.71204L-5.91315 0.775335ZM4.03423 2.87589L9.78051 0H11.0672L5.31546 2.87589H4.03423ZM11.0672 8.62216L5.31546 5.74628H6.60218L11.0617 7.9788V8.62216H11.0672Z" fill="#FF0000"/>
</g>
<mask id="mask1_10599_5239" style="mask-type:alpha" maskUnits="userSpaceOnUse" x="10" y="10" width="23" height="23">
<circle cx="21.4472" cy="21.4476" r="10.5536" fill="#D9D9D9"/>
</mask>
<g mask="url(#mask1_10599_5239)">
<circle cx="21.5" cy="21.5" r="10.5" fill="#F6F6F6"/>
<path d="M21.5 25C21.9596 25 22.4148 24.9095 22.8394 24.7336C23.264 24.5577 23.6499 24.2999 23.9749 23.9749C24.2999 23.6499 24.5577 23.264 24.7336 22.8394C24.9095 22.4148 25 21.9596 25 21.5C25 21.0404 24.9095 20.5852 24.7336 20.1606C24.5577 19.736 24.2999 19.3501 23.9749 19.0251C23.6499 18.7001 23.264 18.4423 22.8394 18.2664C22.4148 18.0905 21.9596 18 21.5 18C20.5717 18 19.6815 18.3687 19.0251 19.0251C18.3687 19.6815 18 20.5717 18 21.5C18 22.4283 18.3687 23.3185 19.0251 23.9749C19.6815 24.6313 20.5717 25 21.5 25Z" fill="#FB4B4E"/>
</g>
</svg>
