<svg width="32" height="32" viewBox="0 0 32 32" fill="none" xmlns="http://www.w3.org/2000/svg">
<mask id="mask0_3783_22848" style="mask-type:alpha" maskUnits="userSpaceOnUse" x="0" y="0" width="22" height="22">
<circle cx="10.5536" cy="10.5536" r="10.5536" fill="#D9D9D9"/>
</mask>
<g mask="url(#mask0_3783_22848)">
<path d="M-6.1279 -0.680878H27.916V22.015H-6.1279V-0.680878Z" fill="#003399"/>
<path d="M10.7964 2.52171L10.4406 3.61647L10.988 3.79433L10.7964 2.52171Z" fill="#FFCC00"/>
<path d="M10.7964 2.52171L11.1521 3.61647L10.6047 3.79433L10.7964 2.52171Z" fill="#FFCC00"/>
<path d="M11.8911 3.31718L10.8102 3.54745L10.7399 3.89284L11.8911 3.31718Z" fill="#FFCC00"/>
<path d="M11.8911 3.1633L10.8894 3.9938L10.6212 3.68172L11.8911 3.1633Z" fill="#FFCC00"/>
<path d="M11.4731 4.52627L11.1835 3.50942L10.57 3.76519L11.4731 4.52627Z" fill="#FFCC00"/>
<path d="M11.4273 4.60416L10.5418 4.01789L10.9259 3.46194L11.4273 4.60416Z" fill="#FFCC00"/>
<path d="M9.70209 3.31718L10.783 3.54745L10.8533 3.89284L9.70209 3.31718Z" fill="#FFCC00"/>
<path d="M9.70209 3.1633L10.7037 3.9938L10.9719 3.68172L9.70209 3.1633Z" fill="#FFCC00"/>
<path d="M10.1201 4.52625L10.4097 3.50941L11.0231 3.76518L10.1201 4.52625Z" fill="#FFCC00"/>
<path d="M10.1658 4.60416L11.0513 4.01789L10.6672 3.46194L10.1658 4.60416Z" fill="#FFCC00"/>
<path d="M10.7964 16.3349L10.4406 17.4296L10.988 17.6075L10.7964 16.3349Z" fill="#FFCC00"/>
<path d="M10.7964 16.3349L11.1521 17.4296L10.6047 17.6075L10.7964 16.3349Z" fill="#FFCC00"/>
<path d="M11.8911 17.1303L10.8102 17.3606L10.7399 17.706L11.8911 17.1303Z" fill="#FFCC00"/>
<path d="M11.8911 16.9764L10.8894 17.8069L10.6212 17.4948L11.8911 16.9764Z" fill="#FFCC00"/>
<path d="M11.4731 18.3394L11.1835 17.3226L10.57 17.5784L11.4731 18.3394Z" fill="#FFCC00"/>
<path d="M11.4273 18.4173L10.5418 17.8311L10.9259 17.2751L11.4273 18.4173Z" fill="#FFCC00"/>
<path d="M9.70209 17.1303L10.783 17.3606L10.8533 17.706L9.70209 17.1303Z" fill="#FFCC00"/>
<path d="M9.70209 16.9764L10.7037 17.8069L10.9719 17.4948L9.70209 16.9764Z" fill="#FFCC00"/>
<path d="M10.1201 18.3394L10.4097 17.3226L11.0231 17.5784L10.1201 18.3394Z" fill="#FFCC00"/>
<path d="M10.1658 18.4173L11.0513 17.8311L10.6672 17.2751L10.1658 18.4173Z" fill="#FFCC00"/>
<path d="M3.88995 9.42838L3.53425 10.5231L4.08162 10.701L3.88995 9.42838Z" fill="#FFCC00"/>
<path d="M3.88995 9.42838L4.24566 10.5231L3.69828 10.701L3.88995 9.42838Z" fill="#FFCC00"/>
<path d="M4.98392 10.2238L3.90304 10.4541L3.83274 10.7995L4.98392 10.2238Z" fill="#FFCC00"/>
<path d="M4.98392 10.07L3.98227 10.9005L3.71411 10.5884L4.98392 10.07Z" fill="#FFCC00"/>
<path d="M4.56693 11.433L4.27731 10.4162L3.66384 10.6719L4.56693 11.433Z" fill="#FFCC00"/>
<path d="M4.52115 11.5109L3.63569 10.9246L4.01978 10.3687L4.52115 11.5109Z" fill="#FFCC00"/>
<path d="M2.79407 10.2238L3.87495 10.454L3.94525 10.7994L2.79407 10.2238Z" fill="#FFCC00"/>
<path d="M2.79407 10.0699L3.79571 10.9004L4.06388 10.5883L2.79407 10.0699Z" fill="#FFCC00"/>
<path d="M3.21271 11.4329L3.50232 10.4161L4.1158 10.6718L3.21271 11.4329Z" fill="#FFCC00"/>
<path d="M3.25861 11.5108L4.14407 10.9245L3.75998 10.3686L3.25861 11.5108Z" fill="#FFCC00"/>
<path d="M6.71515 5.53104L7.59839 4.94951L7.21207 4.38882L6.71515 5.53104Z" fill="#FFCC00"/>
<path d="M6.66708 5.44922L6.95341 4.4363L7.57017 4.69598L6.66708 5.44922Z" fill="#FFCC00"/>
<path d="M6.24817 4.17679L7.21801 4.92038L7.51738 4.52198L6.24817 4.17679Z" fill="#FFCC00"/>
<path d="M6.24817 4.24405L7.35846 4.36113L7.39927 4.8196L6.24817 4.24405Z" fill="#FFCC00"/>
<path d="M7.27478 3.44859L6.98843 4.46227L7.60517 4.72121L7.27478 3.44859Z" fill="#FFCC00"/>
<path d="M7.28183 3.44859L7.69991 4.62108L7.21478 4.72155L7.28183 3.44859Z" fill="#FFCC00"/>
<path d="M8.06094 5.53104L7.08875 4.77826L7.38612 4.38881L8.06094 5.53104Z" fill="#FFCC00"/>
<path d="M8.02005 5.60187L7.60806 4.4359L7.11719 4.54282L8.02005 5.60187Z" fill="#FFCC00"/>
<path d="M8.43936 4.31097L7.53668 4.92068L7.16981 4.38817L8.43936 4.31097Z" fill="#FFCC00"/>
<path d="M8.41006 4.35207L7.28819 4.24408L7.31742 4.71163L8.41006 4.35207Z" fill="#FFCC00"/>
<path d="M5.49319 7.97536L5.20687 6.96244L4.59011 7.22213L5.49319 7.97536Z" fill="#FFCC00"/>
<path d="M5.44513 8.05721L4.56189 7.47567L4.94821 6.91498L5.44513 8.05721Z" fill="#FFCC00"/>
<path d="M4.09982 8.05716L5.07201 7.30438L4.77465 6.91493L4.09982 8.05716Z" fill="#FFCC00"/>
<path d="M4.14084 8.12798L4.55283 6.96201L5.0437 7.06893L4.14084 8.12798Z" fill="#FFCC00"/>
<path d="M3.72153 6.83711L4.62421 7.44683L4.99108 6.91432L3.72153 6.83711Z" fill="#FFCC00"/>
<path d="M3.7507 6.87824L4.87257 6.77025L4.84335 7.2378L3.7507 6.87824Z" fill="#FFCC00"/>
<path d="M5.9126 6.703L4.94276 7.44659L4.64339 7.04818L5.9126 6.703Z" fill="#FFCC00"/>
<path d="M5.9126 6.77026L4.80231 6.88734L4.7615 7.3458L5.9126 6.77026Z" fill="#FFCC00"/>
<path d="M4.88635 5.97474L5.1727 6.98841L4.55596 7.24735L4.88635 5.97474Z" fill="#FFCC00"/>
<path d="M4.87921 5.97474L4.46113 7.14723L4.94627 7.24769L4.87921 5.97474Z" fill="#FFCC00"/>
<path d="M5.9101 13.6773L4.84627 13.964L4.759 14.2528L5.9101 13.6773Z" fill="#FFCC00"/>
<path d="M5.9101 13.4664L4.8893 14.3539L4.64015 14.0987L5.9101 13.4664Z" fill="#FFCC00"/>
<path d="M5.49167 14.7101L5.30788 13.8696L4.58858 14.3017L5.49167 14.7101Z" fill="#FFCC00"/>
<path d="M5.3761 14.9644L4.56039 14.6199L5.01424 13.8221L5.3761 14.9644Z" fill="#FFCC00"/>
<path d="M4.08887 14.9645L5.06886 14.1289L4.7796 13.8224L4.08887 14.9645Z" fill="#FFCC00"/>
<path d="M4.13794 15.1216L4.56066 13.8693L5.04116 13.89L4.13794 15.1216Z" fill="#FFCC00"/>
<path d="M4.93518 12.8819L5.17141 13.6984L4.50492 14.1549L4.93518 12.8819Z" fill="#FFCC00"/>
<path d="M4.91565 12.961L4.45947 14.1554L4.9063 14.0763L4.91565 12.961Z" fill="#FFCC00"/>
<path d="M3.71979 13.9303L4.86638 13.6769L4.87088 13.9991L3.71979 13.9303Z" fill="#FFCC00"/>
<path d="M3.71979 13.8908L4.66052 14.3533L4.98894 13.6738L3.71979 13.8908Z" fill="#FFCC00"/>
<path d="M8.43942 16.2054L7.37559 16.4921L7.28833 16.7809L8.43942 16.2054Z" fill="#FFCC00"/>
<path d="M8.43942 15.9945L7.41863 16.882L7.16948 16.6268L8.43942 15.9945Z" fill="#FFCC00"/>
<path d="M8.02097 17.2381L7.83717 16.3976L7.11788 16.8297L8.02097 17.2381Z" fill="#FFCC00"/>
<path d="M7.9054 17.4923L7.08969 17.1479L7.54354 16.3501L7.9054 17.4923Z" fill="#FFCC00"/>
<path d="M6.61823 17.4924L7.59822 16.6569L7.30896 16.3504L6.61823 17.4924Z" fill="#FFCC00"/>
<path d="M6.66727 17.6496L7.08999 16.3973L7.57049 16.418L6.66727 17.6496Z" fill="#FFCC00"/>
<path d="M7.46198 15.41L7.6982 16.2264L7.03169 16.6829L7.46198 15.41Z" fill="#FFCC00"/>
<path d="M7.44254 15.4891L6.98635 16.6834L7.43318 16.6043L7.44254 15.4891Z" fill="#FFCC00"/>
<path d="M6.24991 16.4589L7.3965 16.2055L7.40101 16.5276L6.24991 16.4589Z" fill="#FFCC00"/>
<path d="M6.24991 16.4194L7.19064 16.8818L7.51906 16.2023L6.24991 16.4194Z" fill="#FFCC00"/>
<path d="M17.7028 9.42838L18.0585 10.5231L17.5111 10.701L17.7028 9.42838Z" fill="#FFCC00"/>
<path d="M17.7028 9.42838L17.3471 10.5231L17.8945 10.701L17.7028 9.42838Z" fill="#FFCC00"/>
<path d="M16.609 10.2238L17.6899 10.4541L17.7602 10.7995L16.609 10.2238Z" fill="#FFCC00"/>
<path d="M16.609 10.0699L17.6106 10.9004L17.8788 10.5884L16.609 10.0699Z" fill="#FFCC00"/>
<path d="M17.0258 11.433L17.3154 10.4162L17.9289 10.6719L17.0258 11.433Z" fill="#FFCC00"/>
<path d="M17.0717 11.5109L17.9572 10.9246L17.5731 10.3687L17.0717 11.5109Z" fill="#FFCC00"/>
<path d="M18.7969 10.2238L17.7161 10.4541L17.6458 10.7995L18.7969 10.2238Z" fill="#FFCC00"/>
<path d="M18.7969 10.0699L17.7953 10.9004L17.5271 10.5884L18.7969 10.0699Z" fill="#FFCC00"/>
<path d="M18.3799 11.433L18.0903 10.4162L17.4769 10.6719L18.3799 11.433Z" fill="#FFCC00"/>
<path d="M18.3341 11.5109L17.4487 10.9246L17.8328 10.3687L18.3341 11.5109Z" fill="#FFCC00"/>
<path d="M14.8796 5.53103L13.9963 4.9495L14.3827 4.3888L14.8796 5.53103Z" fill="#FFCC00"/>
<path d="M14.9276 5.4492L14.6413 4.43628L14.0246 4.69597L14.9276 5.4492Z" fill="#FFCC00"/>
<path d="M15.3458 4.17678L14.3759 4.92037L14.0766 4.52197L15.3458 4.17678Z" fill="#FFCC00"/>
<path d="M15.3458 4.24405L14.2355 4.36113L14.1947 4.8196L15.3458 4.24405Z" fill="#FFCC00"/>
<path d="M14.3205 3.44859L14.6068 4.46226L13.9901 4.7212L14.3205 3.44859Z" fill="#FFCC00"/>
<path d="M14.3133 3.44859L13.8952 4.62107L14.3804 4.72154L14.3133 3.44859Z" fill="#FFCC00"/>
<path d="M13.5331 5.53104L14.5053 4.77826L14.2079 4.38881L13.5331 5.53104Z" fill="#FFCC00"/>
<path d="M13.574 5.60186L13.986 4.43589L14.4768 4.54281L13.574 5.60186Z" fill="#FFCC00"/>
<path d="M13.1559 4.31095L14.0585 4.92067L14.4254 4.38816L13.1559 4.31095Z" fill="#FFCC00"/>
<path d="M13.1851 4.35206L14.3069 4.24406L14.2777 4.71161L13.1851 4.35206Z" fill="#FFCC00"/>
<path d="M16.0996 7.97549L16.3859 6.96257L17.0027 7.22226L16.0996 7.97549Z" fill="#FFCC00"/>
<path d="M16.1476 8.05732L17.0308 7.47579L16.6445 6.91509L16.1476 8.05732Z" fill="#FFCC00"/>
<path d="M17.4932 8.05737L16.521 7.30459L16.8183 6.91514L17.4932 8.05737Z" fill="#FFCC00"/>
<path d="M17.4521 8.12819L17.0402 6.96222L16.5493 7.06914L17.4521 8.12819Z" fill="#FFCC00"/>
<path d="M17.8704 6.83729L16.9677 7.447L16.6008 6.91449L17.8704 6.83729Z" fill="#FFCC00"/>
<path d="M17.8411 6.8784L16.7192 6.77041L16.7484 7.23796L17.8411 6.8784Z" fill="#FFCC00"/>
<path d="M15.6814 6.70315L16.6512 7.44674L16.9506 7.04834L15.6814 6.70315Z" fill="#FFCC00"/>
<path d="M15.6814 6.77042L16.7917 6.88751L16.8325 7.34597L15.6814 6.77042Z" fill="#FFCC00"/>
<path d="M16.7077 5.9749L16.4214 6.98857L17.0381 7.24751L16.7077 5.9749Z" fill="#FFCC00"/>
<path d="M16.7148 5.9749L17.1328 7.14739L16.6477 7.24785L16.7148 5.9749Z" fill="#FFCC00"/>
<path d="M15.6827 13.6773L16.7465 13.964L16.8338 14.2528L15.6827 13.6773Z" fill="#FFCC00"/>
<path d="M15.6827 13.4664L16.7035 14.3539L16.9527 14.0987L15.6827 13.4664Z" fill="#FFCC00"/>
<path d="M16.1013 14.7102L16.285 13.8697L17.0043 14.3018L16.1013 14.7102Z" fill="#FFCC00"/>
<path d="M16.2168 14.9645L17.0325 14.62L16.5787 13.8222L16.2168 14.9645Z" fill="#FFCC00"/>
<path d="M17.504 14.9645L16.524 14.1289L16.8133 13.8224L17.504 14.9645Z" fill="#FFCC00"/>
<path d="M17.455 15.1216L17.0323 13.8693L16.5518 13.89L17.455 15.1216Z" fill="#FFCC00"/>
<path d="M16.6591 12.8819L16.4228 13.6984L17.0893 14.1549L16.6591 12.8819Z" fill="#FFCC00"/>
<path d="M16.6786 12.961L17.1348 14.1554L16.6879 14.0763L16.6786 12.961Z" fill="#FFCC00"/>
<path d="M17.8737 13.9306L16.7272 13.6773L16.7227 13.9995L17.8737 13.9306Z" fill="#FFCC00"/>
<path d="M17.8737 13.8912L16.933 14.3536L16.6046 13.6741L17.8737 13.8912Z" fill="#FFCC00"/>
<path d="M13.1533 16.2054L14.2171 16.4921L14.3044 16.7809L13.1533 16.2054Z" fill="#FFCC00"/>
<path d="M13.1533 15.9945L14.1741 16.882L14.4232 16.6268L13.1533 15.9945Z" fill="#FFCC00"/>
<path d="M13.5717 17.2382L13.7554 16.3977L14.4747 16.8298L13.5717 17.2382Z" fill="#FFCC00"/>
<path d="M13.6872 17.4925L14.5029 17.148L14.0491 16.3502L13.6872 17.4925Z" fill="#FFCC00"/>
<path d="M14.9745 17.4926L13.9946 16.657L14.2838 16.3505L14.9745 17.4926Z" fill="#FFCC00"/>
<path d="M14.9255 17.6497L14.5028 16.3974L14.0223 16.4181L14.9255 17.6497Z" fill="#FFCC00"/>
<path d="M14.1296 15.41L13.8934 16.2264L14.5599 16.683L14.1296 15.41Z" fill="#FFCC00"/>
<path d="M14.149 15.4891L14.6052 16.6835L14.1584 16.6044L14.149 15.4891Z" fill="#FFCC00"/>
<path d="M15.3426 16.4588L14.196 16.2054L14.1915 16.5276L15.3426 16.4588Z" fill="#FFCC00"/>
<path d="M15.3426 16.4193L14.4019 16.8817L14.0734 16.2022L15.3426 16.4193Z" fill="#FFCC00"/>
</g>
<mask id="mask1_3783_22848" style="mask-type:alpha" maskUnits="userSpaceOnUse" x="10" y="10" width="23" height="23">
<circle cx="21.4472" cy="21.4476" r="10.5536" fill="#D9D9D9"/>
</mask>
<g mask="url(#mask1_3783_22848)">
<circle cx="21.5" cy="21.5" r="10.5" fill="#F6F6F6"/>
<path d="M21.5 25C21.9596 25 22.4148 24.9095 22.8394 24.7336C23.264 24.5577 23.6499 24.2999 23.9749 23.9749C24.2999 23.6499 24.5577 23.264 24.7336 22.8394C24.9095 22.4148 25 21.9596 25 21.5C25 21.0404 24.9095 20.5852 24.7336 20.1606C24.5577 19.736 24.2999 19.3501 23.9749 19.0251C23.6499 18.7001 23.264 18.4423 22.8394 18.2664C22.4148 18.0905 21.9596 18 21.5 18C20.5717 18 19.6815 18.3687 19.0251 19.0251C18.3687 19.6815 18 20.5717 18 21.5C18 22.4283 18.3687 23.3185 19.0251 23.9749C19.6815 24.6313 20.5717 25 21.5 25Z" fill="#FB4B4E"/>
</g>
</svg>
