<svg width="32" height="32" viewBox="0 0 32 32" fill="none" xmlns="http://www.w3.org/2000/svg">
<mask id="mask0_10599_5871" style="mask-type:alpha" maskUnits="userSpaceOnUse" x="0" y="0" width="22" height="22">
<circle cx="10.5536" cy="10.5536" r="10.5536" fill="#D9D9D9"/>
</mask>
<g mask="url(#mask0_10599_5871)">
<path d="M-6.1279 -0.680878H27.916V22.015H-6.1279V-0.680878Z" fill="#003399"/>
<path d="M10.5554 1.94L10.1777 3.1024L10.7589 3.29125L10.5554 1.94Z" fill="#FFCC00"/>
<path d="M10.5554 1.94L10.9331 3.1024L10.3519 3.29125L10.5554 1.94Z" fill="#FFCC00"/>
<path d="M11.7178 2.78458H10.4956V3.39569L11.7178 2.78458Z" fill="#FFCC00"/>
<path d="M11.7178 2.78456L10.729 3.50297L10.3698 3.00857L11.7178 2.78456Z" fill="#FFCC00"/>
<path d="M11.2738 4.15112L10.8961 2.98872L10.3149 3.17756L11.2738 4.15112Z" fill="#FFCC00"/>
<path d="M11.2738 4.15112L10.285 3.43272L10.6442 2.93832L11.2738 4.15112Z" fill="#FFCC00"/>
<path d="M9.39294 2.78458H10.6152V3.39569L9.39294 2.78458Z" fill="#FFCC00"/>
<path d="M9.39294 2.78456L10.3817 3.50297L10.7409 3.00857L9.39294 2.78456Z" fill="#FFCC00"/>
<path d="M9.83698 4.15112L10.2147 2.98872L10.7959 3.17756L9.83698 4.15112Z" fill="#FFCC00"/>
<path d="M9.83698 4.15112L10.8258 3.43272L10.4666 2.93832L9.83698 4.15112Z" fill="#FFCC00"/>
<path d="M10.5554 16.6067L10.1777 17.7691L10.7589 17.9579L10.5554 16.6067Z" fill="#FFCC00"/>
<path d="M10.5554 16.6067L10.9331 17.7691L10.3519 17.9579L10.5554 16.6067Z" fill="#FFCC00"/>
<path d="M11.7178 17.4512H10.4956V18.0624L11.7178 17.4512Z" fill="#FFCC00"/>
<path d="M11.7178 17.4512L10.729 18.1696L10.3698 17.6752L11.7178 17.4512Z" fill="#FFCC00"/>
<path d="M11.2738 18.8178L10.8961 17.6554L10.3149 17.8442L11.2738 18.8178Z" fill="#FFCC00"/>
<path d="M11.2738 18.8178L10.285 18.0994L10.6442 17.605L11.2738 18.8178Z" fill="#FFCC00"/>
<path d="M9.39294 17.4512H10.6152V18.0624L9.39294 17.4512Z" fill="#FFCC00"/>
<path d="M9.39294 17.4512L10.3817 18.1696L10.7409 17.6752L9.39294 17.4512Z" fill="#FFCC00"/>
<path d="M9.83698 18.8178L10.2147 17.6554L10.7959 17.8442L9.83698 18.8178Z" fill="#FFCC00"/>
<path d="M9.83698 18.8178L10.8258 18.0994L10.4666 17.605L9.83698 18.8178Z" fill="#FFCC00"/>
<path d="M3.22205 9.27333L2.84436 10.4357L3.42556 10.6246L3.22205 9.27333Z" fill="#FFCC00"/>
<path d="M3.22205 9.27333L3.59973 10.4357L3.01853 10.6246L3.22205 9.27333Z" fill="#FFCC00"/>
<path d="M4.38449 10.1179H3.16227V10.729L4.38449 10.1179Z" fill="#FFCC00"/>
<path d="M4.38449 10.1179L3.39569 10.8363L3.03649 10.3419L4.38449 10.1179Z" fill="#FFCC00"/>
<path d="M3.94046 11.4845L3.56277 10.322L2.98157 10.5109L3.94046 11.4845Z" fill="#FFCC00"/>
<path d="M3.94046 11.4845L2.95166 10.766L3.31086 10.2716L3.94046 11.4845Z" fill="#FFCC00"/>
<path d="M2.0596 10.1179H3.28182V10.729L2.0596 10.1179Z" fill="#FFCC00"/>
<path d="M2.0596 10.1179L3.0484 10.8363L3.4076 10.3419L2.0596 10.1179Z" fill="#FFCC00"/>
<path d="M2.50363 11.4845L2.88132 10.322L3.46252 10.5109L2.50363 11.4845Z" fill="#FFCC00"/>
<path d="M2.50363 11.4845L3.49243 10.766L3.13323 10.2716L2.50363 11.4845Z" fill="#FFCC00"/>
<path d="M6.17014 5.13525L7.15893 4.41685L6.79973 3.92245L6.17014 5.13525Z" fill="#FFCC00"/>
<path d="M6.17014 5.13525L6.54782 3.97285L7.12902 4.1617L6.17014 5.13525Z" fill="#FFCC00"/>
<path d="M5.72614 3.76872L6.71493 4.48713L7.07414 3.99273L5.72614 3.76872Z" fill="#FFCC00"/>
<path d="M5.72614 3.76874H6.94836V4.37985L5.72614 3.76874Z" fill="#FFCC00"/>
<path d="M6.88858 2.92415L6.51089 4.08655L7.09209 4.27539L6.88858 2.92415Z" fill="#FFCC00"/>
<path d="M6.88858 2.92415L7.26627 4.08655L6.68507 4.27539L6.88858 2.92415Z" fill="#FFCC00"/>
<path d="M7.60703 5.13524L6.61823 4.41683L6.97743 3.92244L7.60703 5.13524Z" fill="#FFCC00"/>
<path d="M7.60703 5.13524L7.22934 3.97284L6.64814 4.16168L7.60703 5.13524Z" fill="#FFCC00"/>
<path d="M8.05103 3.76871L7.06223 4.48711L6.70302 3.99271L8.05103 3.76871Z" fill="#FFCC00"/>
<path d="M8.05103 3.76872H6.8288V4.37983L8.05103 3.76872Z" fill="#FFCC00"/>
<path d="M4.92462 7.81764L4.54693 6.65524L3.96573 6.84408L4.92462 7.81764Z" fill="#FFCC00"/>
<path d="M4.92462 7.81764L3.93582 7.09924L4.29503 6.60484L4.92462 7.81764Z" fill="#FFCC00"/>
<path d="M3.48776 7.81764L4.47656 7.09924L4.11736 6.60484L3.48776 7.81764Z" fill="#FFCC00"/>
<path d="M3.48776 7.81764L3.86545 6.65524L4.44665 6.84408L3.48776 7.81764Z" fill="#FFCC00"/>
<path d="M3.04376 6.45111L4.03256 7.16952L4.39176 6.67512L3.04376 6.45111Z" fill="#FFCC00"/>
<path d="M3.04376 6.45113H4.26598V7.06224L3.04376 6.45113Z" fill="#FFCC00"/>
<path d="M5.36865 6.45111L4.37985 7.16952L4.02065 6.67512L5.36865 6.45111Z" fill="#FFCC00"/>
<path d="M5.36865 6.45113H4.14643V7.06224L5.36865 6.45113Z" fill="#FFCC00"/>
<path d="M4.20621 5.60654L4.58389 6.76894L4.00269 6.95778L4.20621 5.60654Z" fill="#FFCC00"/>
<path d="M4.20621 5.60654L3.82852 6.76894L4.40972 6.95778L4.20621 5.60654Z" fill="#FFCC00"/>
<path d="M5.36661 13.7849H4.14439V14.396L5.36661 13.7849Z" fill="#FFCC00"/>
<path d="M5.36661 13.7849L4.37781 14.5033L4.01861 14.0089L5.36661 13.7849Z" fill="#FFCC00"/>
<path d="M4.92261 15.1515L4.54492 13.9891L3.96372 14.1779L4.92261 15.1515Z" fill="#FFCC00"/>
<path d="M4.92261 15.1515L3.93381 14.4331L4.29301 13.9387L4.92261 15.1515Z" fill="#FFCC00"/>
<path d="M3.48575 15.1515L4.47455 14.4331L4.11534 13.9387L3.48575 15.1515Z" fill="#FFCC00"/>
<path d="M3.48575 15.1515L3.86344 13.9891L4.44464 14.1779L3.48575 15.1515Z" fill="#FFCC00"/>
<path d="M4.20416 12.9404L4.58185 14.1028L4.00065 14.2916L4.20416 12.9404Z" fill="#FFCC00"/>
<path d="M4.20416 12.9404L3.82648 14.1028L4.40768 14.2916L4.20416 12.9404Z" fill="#FFCC00"/>
<path d="M3.04172 13.7849H4.26394V14.396L3.04172 13.7849Z" fill="#FFCC00"/>
<path d="M3.04172 13.7849L4.03052 14.5033L4.38972 14.0089L3.04172 13.7849Z" fill="#FFCC00"/>
<path d="M8.0517 16.4692H6.82947V17.0803L8.0517 16.4692Z" fill="#FFCC00"/>
<path d="M8.0517 16.4692L7.0629 17.1876L6.7037 16.6932L8.0517 16.4692Z" fill="#FFCC00"/>
<path d="M7.6077 17.8358L7.23001 16.6734L6.64881 16.8622L7.6077 17.8358Z" fill="#FFCC00"/>
<path d="M7.6077 17.8358L6.6189 17.1174L6.9781 16.623L7.6077 17.8358Z" fill="#FFCC00"/>
<path d="M6.17084 17.8358L7.15964 17.1174L6.80043 16.623L6.17084 17.8358Z" fill="#FFCC00"/>
<path d="M6.17084 17.8358L6.54852 16.6734L7.12973 16.8622L6.17084 17.8358Z" fill="#FFCC00"/>
<path d="M6.88925 15.6247L7.26694 16.7871L6.68574 16.9759L6.88925 15.6247Z" fill="#FFCC00"/>
<path d="M6.88925 15.6247L6.51156 16.7871L7.09277 16.9759L6.88925 15.6247Z" fill="#FFCC00"/>
<path d="M5.72681 16.4692H6.94903V17.0803L5.72681 16.4692Z" fill="#FFCC00"/>
<path d="M5.72681 16.4692L6.71561 17.1876L7.07481 16.6932L5.72681 16.4692Z" fill="#FFCC00"/>
<path d="M17.8887 9.27333L18.2664 10.4357L17.6852 10.6246L17.8887 9.27333Z" fill="#FFCC00"/>
<path d="M17.8887 9.27333L17.511 10.4357L18.0922 10.6246L17.8887 9.27333Z" fill="#FFCC00"/>
<path d="M16.7263 10.1179H17.9485V10.729L16.7263 10.1179Z" fill="#FFCC00"/>
<path d="M16.7263 10.1179L17.7151 10.8363L18.0743 10.3419L16.7263 10.1179Z" fill="#FFCC00"/>
<path d="M17.1703 11.4845L17.548 10.322L18.1292 10.5109L17.1703 11.4845Z" fill="#FFCC00"/>
<path d="M17.1703 11.4845L18.1591 10.766L17.7999 10.2716L17.1703 11.4845Z" fill="#FFCC00"/>
<path d="M19.0512 10.1179H17.829V10.729L19.0512 10.1179Z" fill="#FFCC00"/>
<path d="M19.0512 10.1179L18.0624 10.8363L17.7032 10.3419L19.0512 10.1179Z" fill="#FFCC00"/>
<path d="M18.6071 11.4845L18.2295 10.322L17.6483 10.5109L18.6071 11.4845Z" fill="#FFCC00"/>
<path d="M18.6071 11.4845L17.6183 10.766L17.9776 10.2716L18.6071 11.4845Z" fill="#FFCC00"/>
<path d="M14.9406 5.13525L13.9518 4.41685L14.311 3.92245L14.9406 5.13525Z" fill="#FFCC00"/>
<path d="M14.9406 5.13525L14.563 3.97285L13.9818 4.1617L14.9406 5.13525Z" fill="#FFCC00"/>
<path d="M15.3846 3.76872L14.3958 4.48713L14.0366 3.99273L15.3846 3.76872Z" fill="#FFCC00"/>
<path d="M15.3846 3.76874H14.1624V4.37985L15.3846 3.76874Z" fill="#FFCC00"/>
<path d="M14.2222 2.92415L14.5999 4.08655L14.0187 4.27539L14.2222 2.92415Z" fill="#FFCC00"/>
<path d="M14.2222 2.92415L13.8445 4.08655L14.4257 4.27539L14.2222 2.92415Z" fill="#FFCC00"/>
<path d="M13.5038 5.13524L14.4926 4.41683L14.1334 3.92244L13.5038 5.13524Z" fill="#FFCC00"/>
<path d="M13.5038 5.13524L13.8814 3.97284L14.4626 4.16168L13.5038 5.13524Z" fill="#FFCC00"/>
<path d="M13.0598 3.76871L14.0486 4.48711L14.4078 3.99271L13.0598 3.76871Z" fill="#FFCC00"/>
<path d="M13.0598 3.76872H14.282V4.37983L13.0598 3.76872Z" fill="#FFCC00"/>
<path d="M16.1862 7.81764L16.5638 6.65524L17.145 6.84408L16.1862 7.81764Z" fill="#FFCC00"/>
<path d="M16.1862 7.81764L17.175 7.09924L16.8158 6.60484L16.1862 7.81764Z" fill="#FFCC00"/>
<path d="M17.623 7.81764L16.6342 7.09924L16.9934 6.60484L17.623 7.81764Z" fill="#FFCC00"/>
<path d="M17.623 7.81764L17.2453 6.65524L16.6641 6.84408L17.623 7.81764Z" fill="#FFCC00"/>
<path d="M18.067 6.45111L17.0782 7.16952L16.719 6.67512L18.067 6.45111Z" fill="#FFCC00"/>
<path d="M18.067 6.45113H16.8448V7.06224L18.067 6.45113Z" fill="#FFCC00"/>
<path d="M15.7421 6.45111L16.7309 7.16952L17.0901 6.67512L15.7421 6.45111Z" fill="#FFCC00"/>
<path d="M15.7421 6.45113H16.9643V7.06224L15.7421 6.45113Z" fill="#FFCC00"/>
<path d="M16.9046 5.60654L16.5269 6.76894L17.1081 6.95778L16.9046 5.60654Z" fill="#FFCC00"/>
<path d="M16.9046 5.60654L17.2823 6.76894L16.7011 6.95778L16.9046 5.60654Z" fill="#FFCC00"/>
<path d="M15.7442 13.7849H16.9664V14.396L15.7442 13.7849Z" fill="#FFCC00"/>
<path d="M15.7442 13.7849L16.733 14.5033L17.0922 14.0089L15.7442 13.7849Z" fill="#FFCC00"/>
<path d="M16.1882 15.1515L16.5659 13.9891L17.1471 14.1779L16.1882 15.1515Z" fill="#FFCC00"/>
<path d="M16.1882 15.1515L17.177 14.4331L16.8178 13.9387L16.1882 15.1515Z" fill="#FFCC00"/>
<path d="M17.625 15.1515L16.6362 14.4331L16.9954 13.9387L17.625 15.1515Z" fill="#FFCC00"/>
<path d="M17.625 15.1515L17.2473 13.9891L16.6661 14.1779L17.625 15.1515Z" fill="#FFCC00"/>
<path d="M16.9066 12.9404L16.5289 14.1028L17.1101 14.2916L16.9066 12.9404Z" fill="#FFCC00"/>
<path d="M16.9066 12.9404L17.2843 14.1028L16.7031 14.2916L16.9066 12.9404Z" fill="#FFCC00"/>
<path d="M18.0691 13.7849H16.8468V14.396L18.0691 13.7849Z" fill="#FFCC00"/>
<path d="M18.0691 13.7849L17.0803 14.5033L16.7211 14.0089L18.0691 13.7849Z" fill="#FFCC00"/>
<path d="M13.0591 16.4692H14.2813V17.0803L13.0591 16.4692Z" fill="#FFCC00"/>
<path d="M13.0591 16.4692L14.0479 17.1876L14.4071 16.6932L13.0591 16.4692Z" fill="#FFCC00"/>
<path d="M13.5031 17.8358L13.8808 16.6734L14.462 16.8622L13.5031 17.8358Z" fill="#FFCC00"/>
<path d="M13.5031 17.8358L14.4919 17.1174L14.1327 16.623L13.5031 17.8358Z" fill="#FFCC00"/>
<path d="M14.9399 17.8358L13.9511 17.1174L14.3103 16.623L14.9399 17.8358Z" fill="#FFCC00"/>
<path d="M14.9399 17.8358L14.5623 16.6734L13.9811 16.8622L14.9399 17.8358Z" fill="#FFCC00"/>
<path d="M14.2215 15.6247L13.8438 16.7871L14.425 16.9759L14.2215 15.6247Z" fill="#FFCC00"/>
<path d="M14.2215 15.6247L14.5992 16.7871L14.018 16.9759L14.2215 15.6247Z" fill="#FFCC00"/>
<path d="M15.384 16.4692H14.1618V17.0803L15.384 16.4692Z" fill="#FFCC00"/>
<path d="M15.384 16.4692L14.3952 17.1876L14.036 16.6932L15.384 16.4692Z" fill="#FFCC00"/>
</g>
<mask id="mask1_10599_5871" style="mask-type:alpha" maskUnits="userSpaceOnUse" x="10" y="10" width="23" height="23">
<circle cx="21.4472" cy="21.4476" r="10.5536" fill="#D9D9D9"/>
</mask>
<g mask="url(#mask1_10599_5871)">
<path d="M6.84428 32H35.1807C36.0917 31.9484 36.825 31.1865 36.825 30.2641V11.7359C36.825 10.7849 36.0516 10.0057 35.1005 10H6.92449C5.97345 10.0057 5.20001 10.7849 5.20001 11.7359V30.2583C5.20001 31.1865 5.93335 31.9484 6.84428 32Z" fill="#FEFEFE"/>
<path d="M19.7917 22.5958V32.7802H22.9916V22.5958H32.9V19.3958H22.9916V10.5L19.7917 10.5V19.3958H9.89999V22.5958H19.7917Z" fill="#C8102E"/>
<path d="M24.0583 18.1792L24.0583 10.5L31.6541 13C32.1791 13.0083 32.6291 13.3375 32.8125 13.8L24.0583 18.1792Z" fill="#012169"/>
<path d="M24.0583 23.8208L24.0583 32L31.7041 29C32.2083 28.9708 32.6333 28.6458 32.8125 28.2L24.0583 23.8208Z" fill="#012169"/>
<path d="M18.725 23.8208V32L11.0958 29C10.5917 28.9708 10.1625 28.6458 9.98749 28.1917L18.725 23.8208Z" fill="#012169"/>
<path d="M18.725 18.1792V10.5L11.1458 13C10.6208 13.0083 10.1667 13.3417 9.98749 13.8083L18.725 18.1792Z" fill="#012169"/>
<path d="M9.89999 18.3333H13.0875L9.89999 16.7375V18.3333Z" fill="#012169"/>
<path d="M32.9 18.3333H29.6958L32.9 16.7292V18.3333Z" fill="#012169"/>
<path d="M32.9 23.6667H29.6958L32.9 25.2708V23.6667Z" fill="#012169"/>
<path d="M9.89999 23.6667H13.0875L9.89999 25.2625V23.6667Z" fill="#012169"/>
<path d="M32.9 14.3542L24.9625 18.3333H26.7375L32.9 15.25V14.3542Z" fill="#C8102E"/>
<path d="M17.8208 23.6667H16.0458L9.89999 26.7417V27.6375L17.8375 23.6667H17.8208Z" fill="#C8102E"/>
<path d="M14.2833 18.3375H16.0583L9.89999 15.2542V16.1458L14.2833 18.3375Z" fill="#C8102E"/>
<path d="M28.4958 23.6625H26.7208L32.9 26.7583V25.8667L28.4958 23.6625Z" fill="#C8102E"/>
</g>
</svg>
