<svg width="32" height="32" viewBox="0 0 32 32" fill="none" xmlns="http://www.w3.org/2000/svg">
<mask id="mask0_10599_6595" style="mask-type:alpha" maskUnits="userSpaceOnUse" x="0" y="0" width="22" height="22">
<circle cx="10.5536" cy="10.5536" r="10.5536" fill="#D9D9D9"/>
</mask>
<g mask="url(#mask0_10599_6595)">
<path d="M-4.04927 21.106H24.2872C25.1981 21.0544 25.9315 20.2924 25.9315 19.37V0.841894C25.9315 -0.109147 25.158 -0.888314 24.207 -0.894043H-3.96906C-4.9201 -0.888314 -5.69354 -0.109147 -5.69354 0.841894V19.3643C-5.69354 20.2924 -4.96021 21.0544 -4.04927 21.106Z" fill="#FEFEFE"/>
<path d="M8.8981 11.7018V21.8861H12.0981V11.7018H22.0064V8.50178H12.0981V-0.394051L8.8981 -0.394058V8.50178H-0.993561V11.7018H8.8981Z" fill="#C8102E"/>
<path d="M13.1648 7.28512L13.1648 -0.394043L20.7606 2.10596C21.2856 2.11429 21.7356 2.44346 21.9189 2.90596L13.1648 7.28512Z" fill="#012169"/>
<path d="M13.1648 12.9268L13.1648 21.1059L20.8106 18.106C21.3148 18.0768 21.7398 17.7518 21.9189 17.306L13.1648 12.9268Z" fill="#012169"/>
<path d="M7.83143 12.9268V21.1059L0.202266 18.106C-0.301901 18.0768 -0.731067 17.7518 -0.906067 17.2976L7.83143 12.9268Z" fill="#012169"/>
<path d="M7.83143 7.28512V-0.394043L0.252265 2.10596C-0.272734 2.11429 -0.7269 2.44762 -0.906067 2.91429L7.83143 7.28512Z" fill="#012169"/>
<path d="M-0.993561 7.43929H2.19394L-0.993561 5.84346V7.43929Z" fill="#012169"/>
<path d="M22.0064 7.43928H18.8023L22.0064 5.83511V7.43928Z" fill="#012169"/>
<path d="M22.0064 12.7726H18.8023L22.0064 14.3768V12.7726Z" fill="#012169"/>
<path d="M-0.993561 12.7726H2.19394L-0.993561 14.3684V12.7726Z" fill="#012169"/>
<path d="M22.0064 3.46011L14.0689 7.43928H15.8439L22.0064 4.35595V3.46011Z" fill="#C8102E"/>
<path d="M6.92727 12.7726H5.15227L-0.993561 15.8476V16.7434L6.94393 12.7726H6.92727Z" fill="#C8102E"/>
<path d="M3.38977 7.44345H5.16477L-0.993561 4.36012V5.25179L3.38977 7.44345Z" fill="#C8102E"/>
<path d="M17.6023 12.7685H15.8273L22.0064 15.8643V14.9726L17.6023 12.7685Z" fill="#C8102E"/>
</g>
<mask id="mask1_10599_6595" style="mask-type:alpha" maskUnits="userSpaceOnUse" x="10" y="10" width="23" height="23">
<circle cx="21.4472" cy="21.4476" r="10.5536" fill="#D9D9D9"/>
</mask>
<g mask="url(#mask1_10599_6595)">
<circle cx="21.5" cy="21.5" r="10.5" fill="#F6F6F6"/>
<path d="M21.5 25C21.9596 25 22.4148 24.9095 22.8394 24.7336C23.264 24.5577 23.6499 24.2999 23.9749 23.9749C24.2999 23.6499 24.5577 23.264 24.7336 22.8394C24.9095 22.4148 25 21.9596 25 21.5C25 21.0404 24.9095 20.5852 24.7336 20.1606C24.5577 19.736 24.2999 19.3501 23.9749 19.0251C23.6499 18.7001 23.264 18.4423 22.8394 18.2664C22.4148 18.0905 21.9596 18 21.5 18C20.5717 18 19.6815 18.3687 19.0251 19.0251C18.3687 19.6815 18 20.5717 18 21.5C18 22.4283 18.3687 23.3185 19.0251 23.9749C19.6815 24.6313 20.5717 25 21.5 25Z" fill="#FB4B4E"/>
</g>
</svg>
