<svg width="32" height="32" viewBox="0 0 32 32" fill="none" xmlns="http://www.w3.org/2000/svg">
<mask id="mask0_10599_7077" style="mask-type:alpha" maskUnits="userSpaceOnUse" x="0" y="0" width="22" height="22">
<circle cx="10.5536" cy="10.5536" r="10.5536" fill="#D9D9D9"/>
</mask>
<g mask="url(#mask0_10599_7077)">
<path d="M-4.04927 21.106H24.2872C25.1981 21.0544 25.9315 20.2924 25.9315 19.37V0.841894C25.9315 -0.109147 25.158 -0.888314 24.207 -0.894043H-3.96906C-4.9201 -0.888314 -5.69354 -0.109147 -5.69354 0.841894V19.3643C-5.69354 20.2924 -4.96021 21.0544 -4.04927 21.106Z" fill="#FEFEFE"/>
<path d="M8.8981 11.7018V21.8861H12.0981V11.7018H22.0064V8.50178H12.0981V-0.394051L8.8981 -0.394058V8.50178H-0.993561V11.7018H8.8981Z" fill="#C8102E"/>
<path d="M13.1648 7.28512L13.1648 -0.394043L20.7606 2.10596C21.2856 2.11429 21.7356 2.44346 21.9189 2.90596L13.1648 7.28512Z" fill="#012169"/>
<path d="M13.1648 12.9268L13.1648 21.1059L20.8106 18.106C21.3148 18.0768 21.7398 17.7518 21.9189 17.306L13.1648 12.9268Z" fill="#012169"/>
<path d="M7.83143 12.9268V21.1059L0.202266 18.106C-0.301901 18.0768 -0.731067 17.7518 -0.906067 17.2976L7.83143 12.9268Z" fill="#012169"/>
<path d="M7.83143 7.28512V-0.394043L0.252265 2.10596C-0.272734 2.11429 -0.7269 2.44762 -0.906067 2.91429L7.83143 7.28512Z" fill="#012169"/>
<path d="M-0.993561 7.43929H2.19394L-0.993561 5.84346V7.43929Z" fill="#012169"/>
<path d="M22.0064 7.43928H18.8023L22.0064 5.83511V7.43928Z" fill="#012169"/>
<path d="M22.0064 12.7726H18.8023L22.0064 14.3768V12.7726Z" fill="#012169"/>
<path d="M-0.993561 12.7726H2.19394L-0.993561 14.3684V12.7726Z" fill="#012169"/>
<path d="M22.0064 3.46011L14.0689 7.43928H15.8439L22.0064 4.35595V3.46011Z" fill="#C8102E"/>
<path d="M6.92727 12.7726H5.15227L-0.993561 15.8476V16.7434L6.94393 12.7726H6.92727Z" fill="#C8102E"/>
<path d="M3.38977 7.44345H5.16477L-0.993561 4.36012V5.25179L3.38977 7.44345Z" fill="#C8102E"/>
<path d="M17.6023 12.7685H15.8273L22.0064 15.8643V14.9726L17.6023 12.7685Z" fill="#C8102E"/>
</g>
<mask id="mask1_10599_7077" style="mask-type:alpha" maskUnits="userSpaceOnUse" x="10" y="10" width="23" height="23">
<circle cx="21.4472" cy="21.4476" r="10.5536" fill="#D9D9D9"/>
</mask>
<g mask="url(#mask1_10599_7077)">
<path d="M10.72 9.53226H41.0203C42.0502 9.53226 42.889 10.371 42.889 11.401V31.3401C42.889 32.37 42.0502 33.2088 41.0203 33.2088H10.72C9.69002 33.215 8.85126 32.3762 8.85126 31.3462V11.401C8.85126 10.371 9.69002 9.53226 10.72 9.53226Z" fill="#B22234"/>
<path d="M8.86359 11.2159H42.889C42.8951 11.2776 42.9013 11.3393 42.9013 11.4071V13.2203H8.85126V11.4009C8.85126 11.3393 8.85742 11.2776 8.86359 11.2159ZM42.8951 14.8793V16.8776H8.85126V14.8793H42.8951ZM42.8951 18.5427V20.541H8.85126V18.5427H42.8951ZM42.8951 22.2062V24.2044H8.85126V22.2062H42.8951ZM42.8951 25.8696V27.8678H8.85126V25.8696H42.8951ZM42.8951 29.533V31.34C42.8951 31.4017 42.889 31.4696 42.8828 31.5312H8.86359C8.85742 31.4757 8.85126 31.4079 8.85126 31.3462V29.5392H42.8951V29.533Z" fill="white"/>
<path d="M21.6794 9.53226V22.2864H8.85126V11.401C8.85126 10.371 9.69002 9.53226 10.72 9.53226H21.6794Z" fill="#3C3B6E"/>
<path d="M11.1147 10.0133L11.5464 11.3393L10.4178 10.519H11.8177L10.683 11.3393L11.1147 10.0133Z" fill="white"/>
<path d="M11.1147 12.5789L11.5464 13.9049L10.4178 13.0846H11.8177L10.683 13.9049L11.1147 12.5789Z" fill="white"/>
<path d="M11.1147 15.1446L11.5464 16.4706L10.4178 15.6503H11.8177L10.683 16.4706L11.1147 15.1446Z" fill="white"/>
<path d="M11.1147 17.7102L11.5464 19.0362L10.4178 18.2159H11.8177L10.683 19.0362L11.1147 17.7102Z" fill="white"/>
<path d="M11.1147 20.2758L11.5464 21.6018L10.4178 20.7815H11.8177L10.683 21.6018L11.1147 20.2758Z" fill="white"/>
<path d="M12.6254 11.2961L13.0571 12.6221L11.9285 11.8018H13.3223L12.1937 12.6221L12.6254 11.2961Z" fill="white"/>
<path d="M12.6254 13.8617L13.0571 15.1877L11.9285 14.3674H13.3223L12.1937 15.1877L12.6254 13.8617Z" fill="white"/>
<path d="M12.6254 16.4274L13.0571 17.7534L11.9285 16.9331H13.3223L12.1937 17.7534L12.6254 16.4274Z" fill="white"/>
<path d="M12.6254 18.993L13.0571 20.319L11.9285 19.4987H13.3223L12.1937 20.319L12.6254 18.993Z" fill="white"/>
<path d="M14.1362 10.0133L14.5617 11.3393L13.4392 10.519H14.8331L13.7044 11.3393L14.1362 10.0133Z" fill="white"/>
<path d="M14.1362 12.5789L14.5617 13.9049L13.4392 13.0846H14.8331L13.7044 13.9049L14.1362 12.5789Z" fill="white"/>
<path d="M14.1362 15.1446L14.5617 16.4706L13.4392 15.6503H14.8331L13.7044 16.4706L14.1362 15.1446Z" fill="white"/>
<path d="M14.1362 17.7102L14.5617 19.0362L13.4392 18.2159H14.8331L13.7044 19.0362L14.1362 17.7102Z" fill="white"/>
<path d="M14.1362 20.2758L14.5617 21.6018L13.4392 20.7815H14.8331L13.7044 21.6018L14.1362 20.2758Z" fill="white"/>
<path d="M15.6415 11.2961L16.0732 12.6221L14.9445 11.8018H16.3384L15.2097 12.6221L15.6415 11.2961Z" fill="white"/>
<path d="M15.6415 13.8617L16.0732 15.1877L14.9445 14.3674H16.3384L15.2097 15.1877L15.6415 13.8617Z" fill="white"/>
<path d="M15.6415 16.4274L16.0732 17.7534L14.9445 16.9331H16.3384L15.2097 17.7534L15.6415 16.4274Z" fill="white"/>
<path d="M15.6415 18.993L16.0732 20.319L14.9445 19.4987H16.3384L15.2097 20.319L15.6415 18.993Z" fill="white"/>
<path d="M17.1522 10.0133L17.5839 11.3393L16.4553 10.519H17.8491L16.7205 11.3393L17.1522 10.0133Z" fill="white"/>
<path d="M17.1522 12.5789L17.5839 13.9049L16.4553 13.0846H17.8491L16.7205 13.9049L17.1522 12.5789Z" fill="white"/>
<path d="M17.1522 15.1446L17.5839 16.4706L16.4553 15.6503H17.8491L16.7205 16.4706L17.1522 15.1446Z" fill="white"/>
<path d="M17.1522 17.7102L17.5839 19.0362L16.4553 18.2159H17.8491L16.7205 19.0362L17.1522 17.7102Z" fill="white"/>
<path d="M17.1522 20.2758L17.5839 21.6018L16.4553 20.7815H17.8491L16.7205 21.6018L17.1522 20.2758Z" fill="white"/>
<path d="M18.6576 11.2961L19.0893 12.6221L17.9607 11.8018H19.3545L18.2321 12.6221L18.6576 11.2961Z" fill="white"/>
<path d="M18.6576 13.8617L19.0893 15.1877L17.9607 14.3674H19.3545L18.2321 15.1877L18.6576 13.8617Z" fill="white"/>
<path d="M18.6576 16.4274L19.0893 17.7534L17.9607 16.9331H19.3545L18.2321 17.7534L18.6576 16.4274Z" fill="white"/>
<path d="M18.6576 18.993L19.0893 20.319L17.9607 19.4987H19.3545L18.2321 20.319L18.6576 18.993Z" fill="white"/>
<path d="M20.1683 10.0133L20.6001 11.3393L19.4714 10.519H20.8653L19.7366 11.3393L20.1683 10.0133Z" fill="white"/>
<path d="M20.1683 12.5789L20.6001 13.9049L19.4714 13.0846H20.8653L19.7366 13.9049L20.1683 12.5789Z" fill="white"/>
<path d="M20.1683 15.1446L20.6001 16.4706L19.4714 15.6503H20.8653L19.7366 16.4706L20.1683 15.1446Z" fill="white"/>
<path d="M20.1683 17.7102L20.6001 19.0362L19.4714 18.2159H20.8653L19.7366 19.0362L20.1683 17.7102Z" fill="white"/>
<path d="M20.1683 20.2758L20.6001 21.6018L19.4714 20.7815H20.8653L19.7366 21.6018L20.1683 20.2758Z" fill="white"/>
</g>
</svg>
