<svg width="32" height="32" viewBox="0 0 32 32" fill="none" xmlns="http://www.w3.org/2000/svg">
<mask id="mask0_10599_7142" style="mask-type:alpha" maskUnits="userSpaceOnUse" x="0" y="0" width="22" height="22">
<circle cx="10.5536" cy="10.5536" r="10.5536" fill="#D9D9D9"/>
</mask>
<g mask="url(#mask0_10599_7142)">
<path d="M-0.173584 -1.36179H30.1267C31.1567 -1.36179 31.9954 -0.523024 31.9954 0.506927V20.446C31.9954 21.476 31.1567 22.3147 30.1267 22.3147H-0.173584C-1.20354 22.3209 -2.0423 21.4822 -2.0423 20.4522V0.506927C-2.0423 -0.523024 -1.20354 -1.36179 -0.173584 -1.36179Z" fill="#B22234"/>
<path d="M-2.02996 0.321869H31.9954C32.0016 0.383543 32.0078 0.445216 32.0078 0.513057V2.32626H-2.0423V0.50689C-2.0423 0.445216 -2.03613 0.383543 -2.02996 0.321869ZM32.0016 3.98529V5.98351H-2.0423V3.98529H32.0016ZM32.0016 7.6487V9.64693H-2.0423V7.6487H32.0016ZM32.0016 11.3121V13.3104H-2.0423V11.3121H32.0016ZM32.0016 14.9755V16.9738H-2.0423V14.9755H32.0016ZM32.0016 18.639V20.446C32.0016 20.5077 31.9954 20.5755 31.9893 20.6372H-2.02996C-2.03613 20.5817 -2.0423 20.5138 -2.0423 20.4522V18.6451H32.0016V18.639Z" fill="white"/>
<path d="M10.7858 -1.36179V11.3923H-2.0423V0.506927C-2.0423 -0.523024 -1.20354 -1.36179 -0.173584 -1.36179H10.7858Z" fill="#3C3B6E"/>
<path d="M0.221113 -0.880737L0.652829 0.445247L-0.4758 -0.375013H0.924193L-0.210603 0.445247L0.221113 -0.880737Z" fill="white"/>
<path d="M0.221113 1.68486L0.652829 3.01084L-0.4758 2.19058H0.924193L-0.210603 3.01084L0.221113 1.68486Z" fill="white"/>
<path d="M0.221113 4.25055L0.652829 5.57653L-0.4758 4.75627H0.924193L-0.210603 5.57653L0.221113 4.25055Z" fill="white"/>
<path d="M0.221113 6.81613L0.652829 8.14212L-0.4758 7.32186H0.924193L-0.210603 8.14212L0.221113 6.81613Z" fill="white"/>
<path d="M0.221113 9.38173L0.652829 10.7077L-0.4758 9.88745H0.924193L-0.210603 10.7077L0.221113 9.38173Z" fill="white"/>
<path d="M1.73186 0.402069L2.16357 1.72805L1.03494 0.907794H2.42877L1.30014 1.72805L1.73186 0.402069Z" fill="white"/>
<path d="M1.73186 2.96765L2.16357 4.29364L1.03494 3.47338H2.42877L1.30014 4.29364L1.73186 2.96765Z" fill="white"/>
<path d="M1.73186 5.53334L2.16357 6.85932L1.03494 6.03906H2.42877L1.30014 6.85932L1.73186 5.53334Z" fill="white"/>
<path d="M1.73186 8.09894L2.16357 9.42492L1.03494 8.60466H2.42877L1.30014 9.42492L1.73186 8.09894Z" fill="white"/>
<path d="M3.2426 -0.880737L3.66815 0.445247L2.54568 -0.375013H3.93951L2.81088 0.445247L3.2426 -0.880737Z" fill="white"/>
<path d="M3.2426 1.68486L3.66815 3.01084L2.54568 2.19058H3.93951L2.81088 3.01084L3.2426 1.68486Z" fill="white"/>
<path d="M3.2426 4.25055L3.66815 5.57653L2.54568 4.75627H3.93951L2.81088 5.57653L3.2426 4.25055Z" fill="white"/>
<path d="M3.2426 6.81613L3.66815 8.14212L2.54568 7.32186H3.93951L2.81088 8.14212L3.2426 6.81613Z" fill="white"/>
<path d="M3.2426 9.38173L3.66815 10.7077L2.54568 9.88745H3.93951L2.81088 10.7077L3.2426 9.38173Z" fill="white"/>
<path d="M4.74791 0.402069L5.17962 1.72805L4.05099 0.907794H5.44482L4.31619 1.72805L4.74791 0.402069Z" fill="white"/>
<path d="M4.74791 2.96765L5.17962 4.29364L4.05099 3.47338H5.44482L4.31619 4.29364L4.74791 2.96765Z" fill="white"/>
<path d="M4.74791 5.53334L5.17962 6.85932L4.05099 6.03906H5.44482L4.31619 6.85932L4.74791 5.53334Z" fill="white"/>
<path d="M4.74791 8.09894L5.17962 9.42492L4.05099 8.60466H5.44482L4.31619 9.42492L4.74791 8.09894Z" fill="white"/>
<path d="M6.25865 -0.880737L6.69037 0.445247L5.56174 -0.375013H6.95556L5.82693 0.445247L6.25865 -0.880737Z" fill="white"/>
<path d="M6.25865 1.68486L6.69037 3.01084L5.56174 2.19058H6.95556L5.82693 3.01084L6.25865 1.68486Z" fill="white"/>
<path d="M6.25865 4.25055L6.69037 5.57653L5.56174 4.75627H6.95556L5.82693 5.57653L6.25865 4.25055Z" fill="white"/>
<path d="M6.25865 6.81613L6.69037 8.14212L5.56174 7.32186H6.95556L5.82693 8.14212L6.25865 6.81613Z" fill="white"/>
<path d="M6.25865 9.38173L6.69037 10.7077L5.56174 9.88745H6.95556L5.82693 10.7077L6.25865 9.38173Z" fill="white"/>
<path d="M7.76405 0.402069L8.19577 1.72805L7.06714 0.907794H8.46096L7.3385 1.72805L7.76405 0.402069Z" fill="white"/>
<path d="M7.76405 2.96765L8.19577 4.29364L7.06714 3.47338H8.46096L7.3385 4.29364L7.76405 2.96765Z" fill="white"/>
<path d="M7.76405 5.53334L8.19577 6.85932L7.06714 6.03906H8.46096L7.3385 6.85932L7.76405 5.53334Z" fill="white"/>
<path d="M7.76405 8.09894L8.19577 9.42492L7.06714 8.60466H8.46096L7.3385 9.42492L7.76405 8.09894Z" fill="white"/>
<path d="M9.27479 -0.880737L9.70651 0.445247L8.57788 -0.375013H9.97171L8.84308 0.445247L9.27479 -0.880737Z" fill="white"/>
<path d="M9.27479 1.68486L9.70651 3.01084L8.57788 2.19058H9.97171L8.84308 3.01084L9.27479 1.68486Z" fill="white"/>
<path d="M9.27479 4.25055L9.70651 5.57653L8.57788 4.75627H9.97171L8.84308 5.57653L9.27479 4.25055Z" fill="white"/>
<path d="M9.27479 6.81613L9.70651 8.14212L8.57788 7.32186H9.97171L8.84308 8.14212L9.27479 6.81613Z" fill="white"/>
<path d="M9.27479 9.38173L9.70651 10.7077L8.57788 9.88745H9.97171L8.84308 10.7077L9.27479 9.38173Z" fill="white"/>
</g>
<mask id="mask1_10599_7142" style="mask-type:alpha" maskUnits="userSpaceOnUse" x="10" y="10" width="23" height="23">
<circle cx="21.4472" cy="21.4476" r="10.5536" fill="#D9D9D9"/>
</mask>
<g mask="url(#mask1_10599_7142)">
<circle cx="21.5" cy="21.5" r="10.5" fill="#F6F6F6"/>
<path d="M21.5 25C21.9596 25 22.4148 24.9095 22.8394 24.7336C23.264 24.5577 23.6499 24.2999 23.9749 23.9749C24.2999 23.6499 24.5577 23.264 24.7336 22.8394C24.9095 22.4148 25 21.9596 25 21.5C25 21.0404 24.9095 20.5852 24.7336 20.1606C24.5577 19.736 24.2999 19.3501 23.9749 19.0251C23.6499 18.7001 23.264 18.4423 22.8394 18.2664C22.4148 18.0905 21.9596 18 21.5 18C20.5717 18 19.6815 18.3687 19.0251 19.0251C18.3687 19.6815 18 20.5717 18 21.5C18 22.4283 18.3687 23.3185 19.0251 23.9749C19.6815 24.6313 20.5717 25 21.5 25Z" fill="#FB4B4E"/>
</g>
</svg>
